<?xml version="1.0" standalone="no"?>
<!DOCTYPE svg PUBLIC "-//W3C//DTD SVG 20010904//EN"
 "http://www.w3.org/TR/2001/REC-SVG-20010904/DTD/svg10.dtd">
<svg version="1.0" xmlns="http://www.w3.org/2000/svg"
 width="700.000000pt" height="700.000000pt" viewBox="0 0 700.000000 700.000000"
 preserveAspectRatio="xMidYMid meet">
<metadata>
Created by potrace 1.11, written by Peter Selinger 2001-2013
</metadata>
<g transform="translate(0.000000,700.000000) scale(0.100000,-0.100000)"
fill="#000000" stroke="none">
<path d="M669 6608 c19 -54 176 -467 191 -503 5 -11 26 -67 48 -125 61 -159
484 -1268 569 -1490 41 -107 101 -265 133 -350 33 -85 79 -207 104 -270 41
-107 43 -116 27 -131 -15 -16 -22 -16 -106 2 -49 10 -128 22 -175 28 -81 9
-582 7 -625 -2 -11 -3 -59 -8 -107 -11 -48 -4 -98 -9 -110 -11 -37 -6 -87 -13
-183 -26 -115 -15 -133 -22 -149 -60 -17 -40 -11 -64 22 -90 26 -20 52 -21
142 -4 9 2 43 6 75 10 33 4 70 8 83 10 13 2 53 7 90 11 37 3 75 8 85 10 41 7
291 18 422 17 246 -1 391 -20 517 -67 135 -51 129 -45 177 -174 24 -64 50
-130 57 -147 7 -16 37 -95 67 -175 30 -80 146 -383 257 -675 112 -291 211
-550 220 -575 9 -25 53 -139 97 -255 163 -426 369 -966 447 -1170 l81 -210
286 0 286 0 78 205 c42 113 95 252 117 310 22 58 44 114 49 125 5 11 29 74 53
140 75 199 125 327 130 333 3 3 41 -11 83 -31 145 -65 415 -138 603 -162 25
-3 59 -7 76 -9 90 -13 304 -33 449 -43 146 -9 681 -9 820 0 327 23 518 72 556
144 19 36 16 89 -7 120 -12 16 -78 63 -149 106 -244 148 -514 336 -802 560
-146 113 -446 359 -484 396 -14 14 -67 60 -149 131 -14 12 -61 54 -104 93 -44
40 -87 79 -96 87 -9 8 -58 53 -108 99 l-91 84 26 66 c14 36 29 77 33 91 5 14
85 224 178 468 167 436 171 444 223 500 29 31 80 86 113 123 34 36 114 122
179 191 64 69 127 136 138 149 11 13 68 74 125 135 57 61 114 122 125 135 11
13 44 48 72 78 111 117 123 147 77 196 -35 37 -82 28 -130 -25 -14 -16 -73
-79 -131 -141 -58 -63 -118 -127 -134 -144 -243 -266 -339 -364 -330 -340 4
11 52 137 107 280 55 143 111 289 124 325 27 69 28 71 272 328 75 79 144 152
153 164 10 11 81 86 157 167 241 253 248 262 231 308 -12 33 -54 56 -85 49
-15 -4 -48 -29 -73 -55 -62 -64 -297 -314 -413 -439 -65 -70 -71 -71 -47 -10
29 74 177 462 199 523 10 28 24 64 31 80 7 17 13 35 15 40 1 6 32 87 69 180
37 94 71 181 76 195 30 87 47 131 53 137 3 3 6 14 6 24 0 15 -19 17 -224 18
l-223 1 -38 -98 c-20 -53 -41 -106 -45 -117 -5 -11 -32 -82 -60 -159 -28 -76
-55 -148 -60 -160 -5 -11 -20 -50 -34 -86 -13 -36 -51 -137 -85 -226 -34 -88
-61 -165 -61 -170 0 -5 -28 -39 -63 -76 -34 -36 -109 -117 -167 -179 -58 -62
-121 -129 -140 -150 -19 -20 -80 -85 -135 -145 -55 -59 -117 -126 -138 -148
-21 -23 -87 -92 -145 -155 -59 -63 -116 -124 -127 -135 -11 -12 -78 -84 -150
-161 -71 -77 -155 -167 -186 -200 -31 -33 -70 -74 -85 -91 -16 -17 -74 -79
-129 -138 -55 -59 -118 -127 -140 -151 l-41 -44 -59 55 c-33 31 -84 79 -113
106 l-53 51 39 41 c60 62 114 120 257 271 161 172 279 297 325 345 19 20 90
95 158 167 68 72 144 153 170 180 88 92 337 356 347 367 6 6 40 44 77 84 77
82 84 108 40 151 -49 50 -74 37 -209 -106 -140 -149 -158 -168 -334 -354 -75
-79 -150 -158 -165 -174 -16 -17 -97 -103 -180 -190 -83 -88 -162 -172 -176
-187 -25 -28 -243 -258 -383 -405 -79 -83 -80 -84 -100 -66 -129 114 -279 227
-338 253 -63 28 -80 31 -162 32 -167 0 -435 -138 -670 -346 -22 -20 -43 -36
-47 -36 -3 0 -10 12 -16 28 -16 44 -192 511 -219 582 -14 35 -38 98 -53 140
-40 110 -326 871 -339 900 -5 14 -78 206 -161 428 -82 222 -157 418 -165 437
l-14 35 -245 0 -245 0 18 -52z m4467 -1468 c-18 -47 -72 -188 -120 -315 -98
-259 -66 -211 -320 -479 -72 -76 -146 -155 -165 -175 -161 -172 -309 -329
-377 -401 -44 -47 -102 -108 -129 -137 l-47 -52 -89 87 c-49 47 -89 90 -89 94
0 4 29 38 64 76 36 37 77 81 92 97 15 17 78 84 139 150 62 66 127 136 145 155
40 43 108 117 274 293 72 76 138 148 149 160 10 12 73 80 140 151 67 71 129
137 137 146 48 55 224 240 226 237 2 -1 -12 -41 -30 -87z m-362 -952 c-3 -13
-26 -72 -49 -133 -24 -60 -55 -144 -70 -185 -15 -41 -33 -88 -40 -105 -8 -16
-33 -83 -56 -147 -33 -90 -53 -128 -85 -162 -23 -25 -71 -78 -108 -117 l-67
-72 -92 89 c-51 49 -98 96 -104 105 -10 14 -2 27 48 80 55 58 234 248 349 370
220 233 265 282 268 290 8 19 13 8 6 -13z m-2021 -1494 c67 -83 133 -165 147
-184 14 -18 30 -38 35 -44 6 -6 33 -40 60 -76 57 -75 234 -300 250 -316 5 -6
30 -36 55 -65 141 -169 315 -348 440 -453 l29 -24 -70 -183 c-39 -101 -86
-227 -105 -279 -20 -52 -52 -135 -71 -185 -19 -49 -49 -127 -65 -172 -16 -46
-33 -85 -37 -88 -4 -2 -19 28 -33 68 -15 40 -162 432 -328 872 -166 440 -344
915 -396 1055 -52 140 -101 271 -109 290 -15 34 -14 34 31 -15 25 -27 100
-118 167 -201z"/>
</g>
</svg>
